<?xml version="1.0" encoding="utf-8"?>
<!-- Generator: Adobe Illustrator 24.0.2, SVG Export Plug-In . SVG Version: 6.00 Build 0)  -->
<svg version="1.1" id="Calque_1" xmlns="http://www.w3.org/2000/svg" xmlns:xlink="http://www.w3.org/1999/xlink" x="0px" y="0px"
	 viewBox="0 0 96.7 96.7" style="enable-background:new 0 0 96.7 96.7;" xml:space="preserve">
<style type="text/css">
	.st0{fill:#DFDFDF;}
	.st1{fill:#424242;}
</style>
<title>iconz</title>
<path class="st0" d="M85.4,17.3l-3.1,3.1c15.3,18.9,12.4,46.7-6.5,62c-16.2,13.1-39.3,13.1-55.5,0l-3.1,3.1
	c20.6,17,51.1,14.2,68.1-6.4C100.2,61.1,100.2,35.2,85.4,17.3z"/>
<path class="st0" d="M64.4,64.3C56.7,72,44.6,73.2,35.6,67l-3.1,3.1c12,8.8,28.9,6.1,37.6-5.9c6.9-9.5,6.9-22.3,0-31.7L67,35.6
	C73.1,44.6,72,56.6,64.4,64.3z"/>
<path class="st1" d="M17,17.3C33.1,1.1,58.9-0.1,76.5,14.5l3.1-3.1C59.2-5.8,28.6-3.3,11.4,17.1c-15.2,18-15.2,44.4,0,62.5l3.1-3.1
	C0,59.1,1.1,33.5,17,17.3z"/>
<path class="st1" d="M29.2,29.4c-9.3,9.4-10.4,24.2-2.6,34.9l3.1-3.1c-7.1-10.3-4.5-24.4,5.7-31.5c7.7-5.4,18-5.4,25.7,0l3.1-3.1
	C53.5,18.8,38.6,19.9,29.2,29.4z"/>
</svg>
