<svg id="Calque_1" data-name="Calque 1" xmlns="http://www.w3.org/2000/svg" viewBox="0 0 96.73 96.73"><defs><style>.cls-1{fill:#dfdfdf;}.cls-2{fill:#ffd422;}</style></defs><title>iconz</title><path class="cls-1" d="M285.5,254.32l-3.06,3.06a44.08,44.08,0,0,1-62,62l-3.06,3.06A48.38,48.38,0,0,0,285.5,254.32Z" transform="translate(-200.09 -237.07)"/><path class="cls-1" d="M264.53,301.35a22.66,22.66,0,0,1-28.83,2.76l-3.11,3.11a26.94,26.94,0,0,0,37.64-37.64l-3.1,3.1A22.66,22.66,0,0,1,264.53,301.35Z" transform="translate(-200.09 -237.07)"/><path class="cls-2" d="M217.12,254.42a44.13,44.13,0,0,1,59.49-2.89l3.06-3.06a48.38,48.38,0,0,0-68.18,68.18l3.06-3.06A44.14,44.14,0,0,1,217.12,254.42Z" transform="translate(-200.09 -237.07)"/><path class="cls-2" d="M229.3,266.48a27,27,0,0,0-2.56,34.92l3.1-3.1a22.61,22.61,0,0,1,31.46-31.46l3.11-3.11A27,27,0,0,0,229.3,266.48Z" transform="translate(-200.09 -237.07)"/></svg>