<svg id="Calque_1" data-name="Calque 1" xmlns="http://www.w3.org/2000/svg" viewBox="0 0 77.55 53.38"><defs><style>.cls-1{fill:none;}.cls-2{fill:#dddede;}.cls-3{fill:#ffd423;}</style></defs><title>lamp2</title><path class="cls-1" d="M602.2,572.08a33.82,33.82,0,0,0-33.68,31.28h67.37A33.82,33.82,0,0,0,602.2,572.08Z" transform="translate(-563.43 -567.08)"/><path class="cls-2" d="M593.62,618.08l-0.52-.36Z" transform="translate(-563.43 -567.08)"/><path class="cls-2" d="M616.93,608.36h21.55a2.5,2.5,0,0,0,2.5-2.5,38.78,38.78,0,0,0-77.55,0,2.5,2.5,0,0,0,2.5,2.5h21.19a16.88,16.88,0,0,1-.44-2.22l-0.29-2.76h31.09l-0.24,2.72m-48.72-2.74a33.78,33.78,0,0,1,67.37,0H568.52Z" transform="translate(-563.43 -567.08)"/><path class="cls-3" d="M593.77,618.19l0.24,0.14-0.39-.25Z" transform="translate(-563.43 -567.08)"/><path class="cls-3" d="M587.12,608.36l0.14,0.5c0-.17-0.09-0.33-0.12-0.5h0Z" transform="translate(-563.43 -567.08)"/><path class="cls-3" d="M593.1,617.72l-0.28-.21Z" transform="translate(-563.43 -567.08)"/><path class="cls-3" d="M614.64,614.48a18.06,18.06,0,0,0,2.67-5.62,16.47,16.47,0,0,0,.56-2.78l0.25-2.72H586.31l0.3,2.76a16.54,16.54,0,0,0,.45,2.22h0c0,0.17.08,0.33,0.12,0.5a19.29,19.29,0,0,0,1.88,4.33,15.17,15.17,0,0,0,3.82,4.32l0.28,0.21,0.53,0.36,0.4,0.25a16.72,16.72,0,0,0,16.52-.06l0.2-.12A14.25,14.25,0,0,0,614.64,614.48Zm-12.32,1.14a10.41,10.41,0,0,1-10-7.28h20A10.41,10.41,0,0,1,602.32,615.63Z" transform="translate(-563.43 -567.08)"/><polyline class="cls-2" points="21.32 41.27 57.16 41.27 57.16 36.27 21.32 36.27"/></svg>