<svg id="Calque_1" data-name="Calque 1" xmlns="http://www.w3.org/2000/svg" viewBox="0 0 153.61 184.43"><defs><style>.cls-1{fill:#ffd423;}.cls-2{fill:#fff;}.cls-3,.cls-4{fill:#dddede;}.cls-3{stroke:#dddede;stroke-miterlimit:10;stroke-width:2px;}.cls-5{fill:#6d6d6c;}</style></defs><title>phoneicon</title><path class="cls-1" d="M282.13,618.44H248c-2.67,0-4.85-3.16-4.85-7v-4.91c0-3.89,2.17-7,4.85-7h34.18c2.67,0,4.85,3.16,4.85,7v4.91C287,615.27,284.8,618.44,282.13,618.44Z" transform="translate(-149.83 -501.31)"/><rect class="cls-2" x="237.91" y="606.48" width="23.78" height="2.51" transform="translate(-553.19 34.91) rotate(-61.41)"/><rect class="cls-2" x="249.54" y="607.15" width="25.5" height="2.51" transform="translate(-546.48 38.15) rotate(-60.71)"/><polygon class="cls-2" points="138.76 119.33 118.53 118.45 131.01 96.21 144.31 97.44 138.76 119.33"/><path class="cls-2" d="M137.59,618.62" transform="translate(-149.83 -501.31)"/><path class="cls-3" d="M181.27,684c-5.31,0-18-.47-23.18-4.74-6.52-5.41-5.68-18.56-5.64-19.12l-0.93-107.61c0-.36-0.09-9.13,6.23-13.69s25.06-4.51,25.86-4.5v1.41c-0.2,0-19-.12-25,4.24-5.73,4.13-5.65,12.44-5.65,12.53l0.93,107.67c0,0.18-.83,13,5.13,18s24.41,4.39,24.59,4.38l0.05,1.41C183.49,684,182.61,684,181.27,684Z" transform="translate(-149.83 -501.31)"/><path class="cls-3" d="M181.27,684.74c-5.33,0-18.3-.48-23.63-4.9-6.78-5.63-5.93-19.13-5.89-19.71l-0.93-107.55c0-.38-0.1-9.49,6.53-14.26,6.44-4.63,24.22-4.65,26.27-4.63h0.7l0,2.82H183.6c-0.18,0-18.79-.07-24.6,4.1-5.4,3.89-5.36,11.86-5.36,11.94l0.93,107.67c0,0.57-.71,12.82,4.88,17.46,4.85,4,19.05,4.42,24.12,4.22l0.7,0,0.1,2.81-0.7,0C183.51,684.71,182.63,684.74,181.27,684.74Zm-28.11-24.56c0,0.67-.83,13.42,5.38,18.58,5.63,4.67,20.89,4.64,24.37,4.56h0c-3.47.06-18.81,0.06-24.37-4.56-6-5-5.47-17.2-5.38-18.57h0Zm4.68-120.48c-5.7,4.41-5.62,12.51-5.61,12.86L152.46,579l-0.23-26.46C152.23,552.48,152.16,544.11,157.85,539.7Zm25.07-4.61c-3.43,0-18,.33-24.06,3.93,6.05-3.58,20.67-3.9,24.06-3.93h0Z" transform="translate(-149.83 -501.31)"/><path class="cls-3" d="M186,684c-1.34,0-2.21,0-2.37,0l0.05-1.41c0.18,0,18.56.63,24.59-4.38s5.14-17.81,5.13-17.94l0.93-107.72c0-.09.07-8.42-5.65-12.53-6.06-4.36-24.83-4.23-25-4.24v-1.41c0.79,0,19.43-.12,25.86,4.5s6.24,13.32,6.23,13.69l-0.93,107.66c0,0.5.88,13.65-5.64,19.06C204,683.57,191.33,684,186,684Z" transform="translate(-149.83 -501.31)"/><path class="cls-3" d="M186,684.74c-1.36,0-2.24,0-2.4,0l-0.7,0,0.1-2.81,0.71,0c0.18,0,18.29.61,24.11-4.22s4.89-17.22,4.88-17.35l0.93-107.78c0-.08,0-8.08-5.36-12-5.56-4-22.67-4.17-24.56-4.1H183l-0.05-.7,0-2.11h0.7c0.21,0,19.56-.2,26.28,4.63s6.53,13.89,6.53,14.28l-0.93,107.65c0,0.51.95,13.92-5.89,19.6C204.32,684.26,191.35,684.74,186,684.74Zm-1.64-1.42c3.47,0.07,18.73.11,24.36-4.56,6.29-5.22,5.4-18.34,5.39-18.47l0.93-107.71c0-.36.09-8.48-5.63-12.88,5.7,4.39,5.63,12.8,5.63,12.88l-0.93,107.71c0,0.07.91,13.25-5.39,18.47-5.59,4.65-20.9,4.63-24.36,4.56h0Zm0-148.23c4.24,0,18.09.4,24,3.91-6.14-3.63-20.67-3.9-24-3.91h0Z" transform="translate(-149.83 -501.31)"/><path class="cls-1" d="M198.87,613.86h-30.5c-4.53,0-8.22-3.3-8.22-7.35V561.77c0-4.05,3.69-7.35,8.22-7.35h30.5c4.53,0,8.22,3.3,8.22,7.35v44.74C207.09,610.56,203.4,613.86,198.87,613.86ZM168.37,555c-4.17,0-7.56,3-7.56,6.76v44.74c0,3.73,3.39,6.76,7.56,6.76h30.5c4.17,0,7.56-3,7.56-6.76V561.77c0-3.73-3.39-6.76-7.56-6.76h-30.5Z" transform="translate(-149.83 -501.31)"/><path class="cls-4" d="M194.08,550.68H172.86a2.29,2.29,0,1,1,0-4.57h21.21A2.29,2.29,0,0,1,194.08,550.68Zm-21.21-3.87a1.58,1.58,0,1,0,0,3.16h21.21a1.58,1.58,0,0,0,0-3.16H172.86Z" transform="translate(-149.83 -501.31)"/><path class="cls-4" d="M186,632.37h-5.68a4.26,4.26,0,0,1-4.25-4.25v-2.78a4.26,4.26,0,0,1,4.25-4.25H186a4.26,4.26,0,0,1,4.25,4.25v2.78A4.26,4.26,0,0,1,186,632.37Zm-5.68-9.73a2.7,2.7,0,0,0-2.7,2.7v2.78a2.7,2.7,0,0,0,2.7,2.7H186a2.7,2.7,0,0,0,2.7-2.7v-2.78a2.7,2.7,0,0,0-2.7-2.7h-5.68Z" transform="translate(-149.83 -501.31)"/><path class="cls-4" d="M187.71,635.64h-9.06a6.28,6.28,0,0,1-6-6.51v-4.82a6.29,6.29,0,0,1,6-6.51h9.06a6.29,6.29,0,0,1,6,6.51v4.82A6.28,6.28,0,0,1,187.71,635.64Zm-9.06-16.88a5.34,5.34,0,0,0-5.08,5.55v4.82a5.34,5.34,0,0,0,5.08,5.55h9.06a5.34,5.34,0,0,0,5.08-5.55v-4.82a5.34,5.34,0,0,0-5.08-5.55h-9.06Z" transform="translate(-149.83 -501.31)"/><path class="cls-4" d="M208.5,637.12H157.42a0.42,0.42,0,1,0,0,.62h3.64a0.26,0.26,0,0,0,0,.08,1.06,1.06,0,0,0,1.14.5H204.1a1.06,1.06,0,0,0,1.14-.5,0.26,0.26,0,0,0,0-.08h3.29A0.42,0.42,0,1,0,208.5,637.12Z" transform="translate(-149.83 -501.31)"/><path class="cls-4" d="M208.5,647.15H157.42a0.42,0.42,0,1,0,0,.62h3.64a0.26,0.26,0,0,0,0,.08,1.06,1.06,0,0,0,1.14.5H204.1a1.06,1.06,0,0,0,1.14-.5,0.26,0.26,0,0,0,0-.08h3.29A0.42,0.42,0,1,0,208.5,647.15Z" transform="translate(-149.83 -501.31)"/><path class="cls-4" d="M208.5,657.52H157.42a0.42,0.42,0,1,0,0,.62h3.64a0.26,0.26,0,0,0,0,.08,1.06,1.06,0,0,0,1.14.5H204.1a1.06,1.06,0,0,0,1.14-.5,0.26,0.26,0,0,0,0-.08h3.29A0.42,0.42,0,1,0,208.5,657.52Z" transform="translate(-149.83 -501.31)"/><path class="cls-4" d="M208.5,667.72H157.42a0.42,0.42,0,1,0,0,.62h3.64a0.26,0.26,0,0,0,0,.08,1.06,1.06,0,0,0,1.14.5H204.1a1.06,1.06,0,0,0,1.14-.5,0.26,0.26,0,0,0,0-.08h3.29A0.42,0.42,0,1,0,208.5,667.72Z" transform="translate(-149.83 -501.31)"/><rect class="cls-4" x="23.68" y="169.31" width="1.58" height="5.63" rx="0.32" ry="0.32"/><rect class="cls-4" x="41" y="169.31" width="1.58" height="5.63" rx="0.32" ry="0.32"/><rect class="cls-4" x="23.68" y="159.11" width="1.58" height="5.63" rx="0.32" ry="0.32"/><rect class="cls-4" x="41" y="159.11" width="1.58" height="5.63" rx="0.32" ry="0.32"/><rect class="cls-4" x="23.68" y="149.09" width="1.58" height="5.63" rx="0.32" ry="0.32"/><rect class="cls-4" x="41" y="149.09" width="1.58" height="5.63" rx="0.32" ry="0.32"/><rect class="cls-4" x="23.68" y="138.89" width="1.58" height="5.63" rx="0.32" ry="0.32"/><rect class="cls-4" x="41" y="138.89" width="1.58" height="5.63" rx="0.32" ry="0.32"/><rect class="cls-4" x="202.43" y="621.8" width="1.1" height="10.62" rx="0.22" ry="0.22" transform="translate(-573.95 328.78) rotate(-90)"/><rect class="cls-4" x="162.88" y="621.8" width="1.1" height="10.62" rx="0.22" ry="0.22" transform="translate(-613.51 289.22) rotate(-90)"/><path class="cls-1" d="M167.24,632.4a0.33,0.33,0,0,1-.42.06c-2.76-1.72-5.83,0-5.86,0a0.33,0.33,0,0,1-.34-0.58c0.14-.08,3.46-2,6.56,0a0.33,0.33,0,0,1,.11.46Z" transform="translate(-149.83 -501.31)"/><path class="cls-5" d="M206.39,632.4a0.33,0.33,0,0,1-.42.06c-2.76-1.72-5.83,0-5.86,0a0.33,0.33,0,1,1-.34-0.58c0.14-.08,3.46-2,6.56,0a0.33,0.33,0,0,1,.11.46Z" transform="translate(-149.83 -501.31)"/><path class="cls-5" d="M204,631.51a0.21,0.21,0,0,1,0-.07h-1.55a0.21,0.21,0,0,1,0,.07v1.6H204v-1.6Z" transform="translate(-149.83 -501.31)"/><path class="cls-4" d="M291.75,624.64h-46c-4.35,0-7.9-5.19-7.9-11.57V605c0-6.38,3.54-11.57,7.9-11.57h46c4.35,0,7.89,5.19,7.89,11.57v8.06C299.64,619.45,296.1,624.64,291.75,624.64Zm-46-28.17c-3.22,0-5.84,3.84-5.84,8.55v8.06c0,4.71,2.62,8.55,5.84,8.55h46c3.22,0,5.83-3.84,5.83-8.55V605c0-4.71-2.62-8.55-5.83-8.55h-46Z" transform="translate(-149.83 -501.31)"/><path class="cls-4" d="M301.13,604.66a2.31,2.31,0,0,1,2.31,2.31v3.95a2.31,2.31,0,0,1-2.31,2.31" transform="translate(-149.83 -501.31)"/><path class="cls-5" d="M228.28,541a1.23,1.23,0,0,1-1.21-1c-2.29-11.75-14.71-15.63-14.84-15.67a1.23,1.23,0,1,1,.71-2.36c0.57,0.17,14,4.37,16.54,17.56a1.23,1.23,0,0,1-1,1.44Z" transform="translate(-149.83 -501.31)"/><path class="cls-5" d="M237.51,540.77a1.23,1.23,0,0,1-1.21-1c-3.65-18.72-23.41-24.9-23.61-25a1.23,1.23,0,1,1,.71-2.36c0.87,0.26,21.38,6.68,25.31,26.84a1.23,1.23,0,0,1-1,1.44Z" transform="translate(-149.83 -501.31)"/><path class="cls-5" d="M237.51,540.77a1.23,1.23,0,0,1-1.21-1c-3.65-18.72-23.41-24.9-23.61-25a1.23,1.23,0,1,1,.71-2.36c0.87,0.26,21.38,6.68,25.31,26.84a1.23,1.23,0,0,1-1,1.44Z" transform="translate(-149.83 -501.31)"/><path class="cls-5" d="M247.82,541.4a1.23,1.23,0,0,1-1.21-1c-5.36-27.49-34.39-36.6-34.68-36.69a1.23,1.23,0,1,1,.71-2.36c0.31,0.09,30.74,9.61,36.39,38.57a1.23,1.23,0,0,1-1,1.44Z" transform="translate(-149.83 -501.31)"/></svg>