<svg id="Calque_1" data-name="Calque 1" xmlns="http://www.w3.org/2000/svg" viewBox="0 0 41.37 78.42"><defs><style>.cls-1{fill:#6d6d6c;}</style></defs><title>prise</title><path class="cls-1" d="M458.22,590.46a20.68,20.68,0,1,1-41.37,0" transform="translate(-416.85 -575.11)"/><rect class="cls-1" x="10.01" width="6.01" height="22.69" rx="1.22" ry="1.22"/><rect class="cls-1" x="24.35" width="6.01" height="22.69" rx="1.22" ry="1.22"/><path class="cls-1" d="M434.58,653.53a0.61,0.61,0,0,1-.27-0.06A16.78,16.78,0,0,1,427.82,629a33.36,33.36,0,0,1,3.83-4.42,26,26,0,0,0,4.27-5.2A13.16,13.16,0,0,0,434,604.23a0.62,0.62,0,0,1,.88-0.86A14.44,14.44,0,0,1,437,620a27.33,27.33,0,0,1-4.46,5.46,32.09,32.09,0,0,0-3.69,4.25,15.55,15.55,0,0,0,6,22.67A0.62,0.62,0,0,1,434.58,653.53Z" transform="translate(-416.85 -575.11)"/></svg>