<svg id="Calque_1" data-name="Calque 1" xmlns="http://www.w3.org/2000/svg" viewBox="0 0 137.12 88.81"><defs><style>.cls-1{fill:#dddede;}.cls-2{fill:#ffd423;}.cls-3{fill:#fff;}.cls-4{fill:#6d6d6c;}</style></defs><title>radioicon</title><path class="cls-1" d="M817.56,571.63H744.3c-10,0-18.25,9.56-18.25,21.25V607c0,11.69,8.21,21.25,18.25,21.25h73.26c10,0,18.25-9.56,18.25-21.25V592.88C835.82,581.2,827.6,571.63,817.56,571.63Zm13.21,34.18c0,9.68-7.52,17.61-16.7,17.61H747c-9.19,0-16.7-7.92-16.7-17.61V594.09c0-9.68,7.52-17.61,16.7-17.61h67c9.19,0,16.7,7.92,16.7,17.61v11.72Z" transform="translate(-726.05 -539.46)"/><circle class="cls-2" cx="31.28" cy="60.79" r="15.33"/><rect class="cls-3" x="27.15" y="40.14" width="1.77" height="39.54"/><rect class="cls-3" x="33.34" y="40.14" width="1.77" height="39.54"/><rect class="cls-3" x="39.54" y="40.14" width="1.77" height="39.54"/><rect class="cls-3" x="20.95" y="40.14" width="1.77" height="39.54"/><rect class="cls-3" x="11.36" y="62.71" width="39.54" height="1.77"/><rect class="cls-3" x="11.36" y="56.52" width="39.54" height="1.77"/><rect class="cls-3" x="11.36" y="50.32" width="39.54" height="1.77"/><rect class="cls-3" x="11.36" y="68.91" width="39.54" height="1.77"/><circle class="cls-1" cx="67.54" cy="56.66" r="3.22"/><circle class="cls-1" cx="79.11" cy="56.66" r="3.22"/><circle class="cls-1" cx="67.54" cy="66.99" r="3.22"/><circle class="cls-1" cx="79.11" cy="66.99" r="3.22"/><polygon class="cls-1" points="55.77 33.01 41.11 18.34 41.49 17.95 55.77 32.23 70.06 17.95 70.44 18.34 55.77 33.01"/><polygon class="cls-1" points="55.77 33.63 40.48 18.34 41.5 17.32 55.77 31.6 70.06 17.32 71.07 18.34 55.77 33.63"/><path class="cls-4" d="M842.4,579.12a1.23,1.23,0,0,1-1.21-1c-2.29-11.75-14.71-15.63-14.84-15.67a1.23,1.23,0,0,1,.71-2.36c0.57,0.17,14,4.37,16.54,17.56a1.23,1.23,0,0,1-1,1.44Z" transform="translate(-726.05 -539.46)"/><path class="cls-4" d="M851.63,578.92a1.23,1.23,0,0,1-1.21-1C846.77,559.2,827,553,826.81,553a1.23,1.23,0,0,1,.71-2.36c0.87,0.26,21.38,6.68,25.31,26.84a1.23,1.23,0,0,1-1,1.44Z" transform="translate(-726.05 -539.46)"/><path class="cls-4" d="M851.63,578.92a1.23,1.23,0,0,1-1.21-1C846.77,559.2,827,553,826.81,553a1.23,1.23,0,0,1,.71-2.36c0.87,0.26,21.38,6.68,25.31,26.84a1.23,1.23,0,0,1-1,1.44Z" transform="translate(-726.05 -539.46)"/><path class="cls-4" d="M861.93,579.55a1.23,1.23,0,0,1-1.21-1c-5.36-27.49-34.39-36.6-34.68-36.69a1.23,1.23,0,1,1,.71-2.36c0.31,0.09,30.74,9.61,36.39,38.57a1.23,1.23,0,0,1-1,1.44Z" transform="translate(-726.05 -539.46)"/></svg>