<svg id="Calque_1" data-name="Calque 1" xmlns="http://www.w3.org/2000/svg" viewBox="0 0 132.85 98.3"><defs><style>.cls-1{fill:#dddede;}.cls-2{fill:#fff;}.cls-3{fill:#ffd423;}.cls-4{fill:#6d6d6c;}</style></defs><title>tvicon</title><path class="cls-1" d="M1021.84,632H939.7c-4.73,0-8.6-4.13-8.6-9.17V575.94c0-5,3.87-9.17,8.6-9.17h82.15c4.73,0,8.6,4.13,8.6,9.17V622.8C1030.44,627.85,1026.57,632,1021.84,632Z" transform="translate(-931.1 -533.67)"/><rect class="cls-2" x="6.4" y="39.23" width="86.02" height="52.94" rx="7.44" ry="7.44"/><polygon class="cls-1" points="48.65 33.38 28.26 12.99 28.8 12.45 48.65 32.3 68.5 12.45 69.04 12.99 48.65 33.38"/><polygon class="cls-1" points="48.65 34.25 27.39 12.99 28.8 11.58 48.65 31.43 68.5 11.58 69.91 12.99 48.65 34.25"/><polygon class="cls-3" points="49.09 70.55 42.3 63.98 36.44 70.05 35.61 69.25 42.27 62.36 49.06 68.93 55.92 61.83 63.42 69.09 62.63 69.91 55.95 63.45 49.09 70.55"/><path class="cls-4" d="M1043.17,573.33a1.23,1.23,0,0,1-1.21-1c-2.29-11.75-14.71-15.63-14.84-15.67a1.23,1.23,0,0,1,.71-2.36c0.57,0.17,14,4.37,16.54,17.56a1.23,1.23,0,0,1-1,1.44Z" transform="translate(-931.1 -533.67)"/><path class="cls-4" d="M1052.4,573.12a1.23,1.23,0,0,1-1.21-1c-3.65-18.72-23.41-24.9-23.61-25a1.23,1.23,0,0,1,.71-2.36c0.87,0.26,21.38,6.68,25.31,26.84a1.23,1.23,0,0,1-1,1.44Z" transform="translate(-931.1 -533.67)"/><path class="cls-4" d="M1052.4,573.12a1.23,1.23,0,0,1-1.21-1c-3.65-18.72-23.41-24.9-23.61-25a1.23,1.23,0,0,1,.71-2.36c0.87,0.26,21.38,6.68,25.31,26.84a1.23,1.23,0,0,1-1,1.44Z" transform="translate(-931.1 -533.67)"/><path class="cls-4" d="M1062.71,573.76a1.23,1.23,0,0,1-1.21-1c-5.36-27.49-34.39-36.6-34.68-36.69a1.23,1.23,0,1,1,.71-2.36c0.31,0.09,30.74,9.61,36.39,38.57a1.23,1.23,0,0,1-1,1.44Z" transform="translate(-931.1 -533.67)"/></svg>